<?xml version="1.0" encoding="utf-8"?>
<!-- Generator: Adobe Illustrator 22.0.1, SVG Export Plug-In . SVG Version: 6.00 Build 0)  -->
<svg version="1.1" id="Layer_1" xmlns="http://www.w3.org/2000/svg" xmlns:xlink="http://www.w3.org/1999/xlink" x="0px"
	y="0px" viewBox="0 0 150 150" style="enable-background:new 0 0 150 150;" xml:space="preserve">
	<style type="text/css">
		.cls-1 {
			fill: #fff;
		}

		.cls-2,
		.cls-3 {
			fill: #262424;
		}

		.cls-3 {
			stroke: #262424;
			stroke-linecap: round;
			stroke-linejoin: round;
			stroke-width: 0.61px;
		}
	</style>
	<circle class="cls-2" cx="105.02" cy="40.2" r="3.05" transform="translate(-1.89 85.38) rotate(-44.97)" />
	<rect class="cls-2" x="110.1" y="17.14" width="1.75" height="34.24"
		transform="translate(4.05 87.84) rotate(-44.96)" />
	<rect class="cls-2" x="111.94" y="15.3" width="1.75" height="34.24"
		transform="translate(5.88 88.6) rotate(-44.96)" />
	<polygon class="cls-2"
		points="121.67 39.05 101.41 18.76 99.44 16.79 97.95 18.28 97.74 18.49 121.93 42.72 122.14 42.5 123.63 41.02 121.67 39.05" />
	<path class="cls-2"
		d="M39.74,105.86h0a10.4,10.4,0,0,1-.67-13.94l-4.75-4.75-5.61,5.61a1.32,1.32,0,0,0,0,1.87l3.16,3.16a1.32,1.32,0,0,0,1.45.28c0,.47.74,6.49.74,6.49a1.42,1.42,0,0,0,.4.8l2.49,2.49h0l.18.18.21.22.22.21.18.18h0l2.49,2.49a1.43,1.43,0,0,0,.8.4s5.93.76,6.36.75a1.31,1.31,0,0,0,.31,1.35l3.16,3.16h0a1.32,1.32,0,0,0,1.87,0l5.62-5.61-4.66-4.66A10.39,10.39,0,0,1,39.74,105.86Z"
		transform="translate(-4.2 -0.6)" />
	<path class="cls-2"
		d="M86.52,34.48,78.8,30a9.15,9.15,0,0,0-9.09,0l-7.61,4.41L51,23.36,26.84,47.59l11.8,11.78a2.78,2.78,0,0,0,2.4.78v7.14H33.69L36.2,73.7l-2.51,7.51H40.5a1.29,1.29,0,0,0-.58.34l-4.61,4.61L40,90.9a10.29,10.29,0,0,1,6.34-2.73l1.38.8-.69,0A9.58,9.58,0,1,0,55,93.17l1.38.8a10.4,10.4,0,0,1-1.7,11.59l4.63,4.63,4.61-4.61a1.32,1.32,0,0,0,.16-1.67h0c-.16-.16-1.68-2.32-1.31-6.23l6.91,4a9.06,9.06,0,0,0,9.09,0l7.09-4.11c.4,4-1.14,6.17-1.3,6.33h0a1.32,1.32,0,0,0,.16,1.67l4.61,4.61L94,105.56a10.4,10.4,0,0,1-1.63-11.74L93.8,93a9.58,9.58,0,1,0,7.83-4.06c-.3,0-.6,0-.89,0l1.43-.83a10.29,10.29,0,0,1,6.51,2.74l4.73-4.73-4.61-4.61a1.29,1.29,0,0,0-.59-.34h6.65l-2.51-7.51,2.51-6.42h-7.36V60.1l.14,0a2.78,2.78,0,0,0,2.44-.77l11.8-11.78L97.66,23.36ZM52,103.43a6.94,6.94,0,1,1,0-9.82A6.94,6.94,0,0,1,52,103.43Zm54.55-9.82a6.94,6.94,0,1,1-9.82,0A6.94,6.94,0,0,1,106.53,93.61Zm.82-12.35v0h.15ZM38.49,47.91,36,45.4a2,2,0,0,1,0-2.8L46.07,32.5a2,2,0,0,1,2.8,0L51.38,35a2,2,0,0,1,0,2.8l-7.11,7.12A9.08,9.08,0,0,0,43.2,46l-1.91,1.92A2,2,0,0,1,38.49,47.91ZM102.63,32.5,112.72,42.6a2,2,0,0,1,0,2.8l-2.51,2.51a2,2,0,0,1-2.8,0L97.32,37.8a2,2,0,0,1,0-2.8l2.51-2.51A2,2,0,0,1,102.63,32.5Z"
		transform="translate(-4.2 -0.6)" />
	<circle class="cls-2" cx="43.68" cy="40.2" r="3.05" transform="translate(-19.83 42.1) rotate(-45.04)" />
	<rect class="cls-2" x="20.6" y="33.38" width="34.24" height="1.75"
		transform="translate(-17.37 36.14) rotate(-45.04)" />
	<rect class="cls-2" x="18.77" y="31.55" width="34.24" height="1.75"
		transform="translate(-16.61 34.3) rotate(-45.04)" />
	<polygon class="cls-2"
		points="42.35 18.28 40.86 16.79 38.9 18.76 18.63 39.05 16.67 41.02 18.16 42.5 18.37 42.72 42.56 18.49 42.35 18.28" />
	<path class="cls-2"
		d="M114.39,87.17l-4.75,4.75a10.4,10.4,0,0,1-.67,13.94h0a10.39,10.39,0,0,1-13.94.67l-4.66,4.66L96,116.81a1.32,1.32,0,0,0,1.87,0h0l3.16-3.16a1.32,1.32,0,0,0,.31-1.35c.43,0,6.36-.75,6.36-.75a1.43,1.43,0,0,0,.8-.4l2.49-2.49h0l.18-.18.22-.2.21-.22.18-.18h0l2.49-2.49a1.43,1.43,0,0,0,.4-.8s.76-6,.74-6.49a1.32,1.32,0,0,0,1.45-.28L120,94.65a1.32,1.32,0,0,0,0-1.87Z"
		transform="translate(-4.2 -0.6)" />
	<path class="cls-1"
		d="M104.37,67.29V51.86a6,6,0,0,0-3-5.18l-24.14-14a6,6,0,0,0-6,0l-24.14,14a6,6,0,0,0-3,5.18V67.29Z"
		transform="translate(-4.2 -0.6)" />
	<path class="cls-1" d="M44.32,81.22A6,6,0,0,0,47.14,85L71.27,99a6.05,6.05,0,0,0,6,0l24.14-14a6,6,0,0,0,2.82-3.8Z"
		transform="translate(-4.2 -0.6)" />
	<path class="cls-2"
		d="M86.29,51.53a8.69,8.69,0,0,0-3.43-2.91v-.26a5.13,5.13,0,0,0,2.76-4.78,5.73,5.73,0,0,0-.83-3.07,7.86,7.86,0,0,0-2.34-2.44,11.89,11.89,0,0,0-3.59-1.61,15.89,15.89,0,0,0-4.57-.62h-.05a15.89,15.89,0,0,0-4.57.62,11.89,11.89,0,0,0-3.59,1.61,7.85,7.85,0,0,0-2.34,2.44,5.73,5.73,0,0,0-.83,3.07,5.14,5.14,0,0,0,2.75,4.78v.26a8.7,8.7,0,0,0-3.43,2.91,7.49,7.49,0,0,0-1.35,4.42A7.92,7.92,0,0,0,64,62.44a12.22,12.22,0,0,0,4.16,1.92,22.23,22.23,0,0,0,6,.73h.16a22.24,22.24,0,0,0,6-.73,12.21,12.21,0,0,0,4.16-1.92,7.92,7.92,0,0,0,3.17-6.5A7.49,7.49,0,0,0,86.29,51.53ZM70.18,42.12a9.4,9.4,0,0,1,4.05-.68h.05a9.4,9.4,0,0,1,4.05.68A2.15,2.15,0,0,1,79.74,44q0,2.39-5.41,2.39h-.16q-5.41,0-5.41-2.39A2.15,2.15,0,0,1,70.18,42.12Zm4.16,17.36h-.16q-7.38,0-7.38-3.9t7.38-3.85h.16q7.38,0,7.38,3.85T74.34,59.48Z"
		transform="translate(-4.2 -0.6)" />
	<path class="cls-2"
		d="M91.93,56.76h.7a.06.06,0,0,1,.07.07v.42a.06.06,0,0,1-.07.07H90.36l0,0a.07.07,0,0,1,0-.05v-.4a.12.12,0,0,1,.05-.11l1.44-.86a1.42,1.42,0,0,0,.26-.2.33.33,0,0,0,.1-.24.34.34,0,0,0-.17-.31.85.85,0,0,0-.44-.1,1.21,1.21,0,0,0-.93.38l0,0,0,0-.29-.3s0,0,0,0,0,0,0,0a1.4,1.4,0,0,1,.59-.43,1.9,1.9,0,0,1,.72-.14,1.76,1.76,0,0,1,.43.06,1.26,1.26,0,0,1,.38.17,1,1,0,0,1,.28.29.81.81,0,0,1,.11.43.78.78,0,0,1-.18.51,1.6,1.6,0,0,1-.43.36l-.28.16-.67.3v0Z"
		transform="translate(-4.2 -0.6)" />
	<path class="cls-2"
		d="M93.25,55.36A1.42,1.42,0,0,1,94,54.6a1.5,1.5,0,0,1,.57-.11,1.46,1.46,0,0,1,.56.11,1.52,1.52,0,0,1,.46.3,1.38,1.38,0,0,1,.31.46,1.49,1.49,0,0,1,0,1.14,1.38,1.38,0,0,1-.31.46,1.43,1.43,0,0,1-.46.3,1.47,1.47,0,0,1-.56.11,1.51,1.51,0,0,1-.57-.11,1.39,1.39,0,0,1-.47-.3,1.37,1.37,0,0,1-.31-.46,1.4,1.4,0,0,1-.11-.57h0A1.4,1.4,0,0,1,93.25,55.36Zm1-.26a.79.79,0,0,0-.27.18.76.76,0,0,0-.17.28,1,1,0,0,0-.06.35,1,1,0,0,0,.06.35.76.76,0,0,0,.17.28.92.92,0,0,0,.27.18.95.95,0,0,0,.7,0,.91.91,0,0,0,.27-.18.77.77,0,0,0,.17-.28,1,1,0,0,0,.06-.35,1,1,0,0,0-.06-.35.77.77,0,0,0-.17-.28A.79.79,0,0,0,95,55.1a.92.92,0,0,0-.34-.06h0A.94.94,0,0,0,94.25,55.1Z"
		transform="translate(-4.2 -0.6)" />
	<path class="cls-2"
		d="M98.2,55.36A1.42,1.42,0,0,1,99,54.6a1.5,1.5,0,0,1,.57-.11,1.46,1.46,0,0,1,.56.11,1.52,1.52,0,0,1,.46.3,1.38,1.38,0,0,1,.31.46,1.49,1.49,0,0,1,0,1.14,1.38,1.38,0,0,1-.31.46,1.43,1.43,0,0,1-.46.3,1.47,1.47,0,0,1-.56.11,1.51,1.51,0,0,1-.57-.11,1.39,1.39,0,0,1-.47-.3,1.37,1.37,0,0,1-.31-.46,1.4,1.4,0,0,1-.11-.57h0A1.4,1.4,0,0,1,98.2,55.36Zm1-.26a.79.79,0,0,0-.27.18.76.76,0,0,0-.17.28,1,1,0,0,0-.06.35,1,1,0,0,0,.06.35.76.76,0,0,0,.17.28.91.91,0,0,0,.27.18.95.95,0,0,0,.7,0,.91.91,0,0,0,.27-.18.77.77,0,0,0,.17-.28,1,1,0,0,0,.06-.35,1,1,0,0,0-.06-.35.77.77,0,0,0-.17-.28.79.79,0,0,0-.27-.18.92.92,0,0,0-.34-.06h0A.94.94,0,0,0,99.19,55.1Z"
		transform="translate(-4.2 -0.6)" />
	<path class="cls-2"
		d="M97.42,57.32H97a.06.06,0,0,1-.07-.07V55.07h-.43a.06.06,0,0,1-.07-.07v-.41a.06.06,0,0,1,.07-.07h.94a.06.06,0,0,1,.07.07v2.65A.06.06,0,0,1,97.42,57.32Z"
		transform="translate(-4.2 -0.6)" />
	<path class="cls-2"
		d="M49.72,54.59V55a.06.06,0,0,1-.07.07H48.1v.52h1.36a.06.06,0,0,1,.07.07v.41a.06.06,0,0,1-.07.07H48.1v.61h1.6a.06.06,0,0,1,.07.07v.42a.06.06,0,0,1-.07.07H47.57a.06.06,0,0,1-.07-.07V54.59a.07.07,0,0,1,0-.05l0,0h2.08A.06.06,0,0,1,49.72,54.59Z"
		transform="translate(-4.2 -0.6)" />
	<path class="cls-2"
		d="M52.42,54.63a1.7,1.7,0,0,1,.55.31A.06.06,0,0,1,53,55l-.26.32s-.07,0-.11,0a1.39,1.39,0,0,0-.4-.22,1.51,1.51,0,0,0-.49-.08.93.93,0,0,0-.4.07.21.21,0,0,0-.14.18.21.21,0,0,0,.14.19,1.71,1.71,0,0,0,.49.11l.26,0,.24.05a1.29,1.29,0,0,1,.39.17.88.88,0,0,1,.26.26.71.71,0,0,1,.09.37.72.72,0,0,1-.09.37.89.89,0,0,1-.26.28,1.15,1.15,0,0,1-.38.17,1.86,1.86,0,0,1-.49.06,2.24,2.24,0,0,1-.69-.1,1.74,1.74,0,0,1-.58-.33s0-.06,0-.1l.24-.32a.06.06,0,0,1,.1,0,1.41,1.41,0,0,0,1,.32,1,1,0,0,0,.48-.09.25.25,0,0,0,.15-.23.24.24,0,0,0-.16-.23,1.93,1.93,0,0,0-.55-.11,2.68,2.68,0,0,1-.47-.08,1.06,1.06,0,0,1-.36-.15.69.69,0,0,1-.23-.25.74.74,0,0,1-.08-.37.7.7,0,0,1,.09-.34.8.8,0,0,1,.24-.26,1.23,1.23,0,0,1,.37-.17,1.68,1.68,0,0,1,.47-.06l0,0A1.93,1.93,0,0,1,52.42,54.63Z"
		transform="translate(-4.2 -0.6)" />
	<path class="cls-2"
		d="M56.31,54.59V55a.06.06,0,0,1-.07.07h-.89v2.16a.06.06,0,0,1-.07.07h-.45a.06.06,0,0,1-.07-.07V55.09h-.89a.06.06,0,0,1-.07-.07v-.42a.06.06,0,0,1,.07-.07h2.38A.06.06,0,0,1,56.31,54.59Z"
		transform="translate(-4.2 -0.6)" />
	<path class="cls-2"
		d="M56.83,56.69a.43.43,0,0,1,.58,0,.41.41,0,0,1,0,.56.43.43,0,0,1-.58,0,.39.39,0,0,1-.11-.29v0A.39.39,0,0,1,56.83,56.69Z"
		transform="translate(-4.2 -0.6)" />
	<path class="cls-3"
		d="M62.82,89.3V85.87a.1.1,0,0,1,0-.07.08.08,0,0,1,.06,0h2.55a.08.08,0,0,1,.09.09v.38c0,.06,0,.09-.09.09h-2v3a.08.08,0,0,1-.09.09h-.42C62.85,89.39,62.82,89.36,62.82,89.3Z"
		transform="translate(-4.2 -0.6)" />
	<path class="cls-3"
		d="M68.63,85.81l1.51,3.48a.07.07,0,0,1,0,.07.07.07,0,0,1-.06,0h-.45a.13.13,0,0,1-.13-.09l-.27-.64h-2l-.29.66a.12.12,0,0,1-.11.07h-.5a.06.06,0,0,1-.06,0,.07.07,0,0,1,0-.06l1.53-3.48a.08.08,0,0,1,.08,0h.67A.07.07,0,0,1,68.63,85.81Zm-.36.5h-.09l-.71,1.78H69Z"
		transform="translate(-4.2 -0.6)" />
	<path class="cls-3"
		d="M73.73,85.87a1.25,1.25,0,0,1,.43.28,1.28,1.28,0,0,1,.28.42,1.29,1.29,0,0,1,.1.5,1.33,1.33,0,0,1-.1.52,1.14,1.14,0,0,1-.28.41,1.27,1.27,0,0,1-.42.27,1.46,1.46,0,0,1-.54.1H72v.93c0,.06,0,.09-.08.09h-.43a.08.08,0,0,1-.09-.09V85.87a.08.08,0,0,1,.09-.09h1.64A1.48,1.48,0,0,1,73.73,85.87Zm0,1.72a.74.74,0,0,0-.56-1.26H72V87.8h1.15A.73.73,0,0,0,73.75,87.6Z"
		transform="translate(-4.2 -0.6)" />
	<path class="cls-3"
		d="M77.67,85.81l1.51,3.48a.07.07,0,0,1,0,.07.07.07,0,0,1-.06,0h-.45a.13.13,0,0,1-.13-.09l-.27-.64h-2l-.29.66a.12.12,0,0,1-.11.07h-.5a.06.06,0,0,1-.06,0,.07.07,0,0,1,0-.06l1.53-3.48a.08.08,0,0,1,.08,0h.67A.07.07,0,0,1,77.67,85.81Zm-.37.5h-.09l-.71,1.78H78Z"
		transform="translate(-4.2 -0.6)" />
	<path class="cls-3"
		d="M83.28,85.87v1.39l1.46-1.43a.23.23,0,0,1,.16-.06h.57s.07,0,.08,0a.1.1,0,0,1,0,.09L84.1,87.23l1.58,2a.07.07,0,0,1,0,.07.06.06,0,0,1-.06,0h-.57a.14.14,0,0,1-.12-.06l-1.28-1.74-.4.33v1.39a.08.08,0,0,1-.09.09h-.41a.08.08,0,0,1-.09-.09V87.91l-.4-.33L81,89.33a.15.15,0,0,1-.11.06h-.57a.06.06,0,0,1-.06,0,.07.07,0,0,1,0-.07l1.59-2L80.45,85.9a.1.1,0,0,1,0-.09s0,0,.08,0h.57a.25.25,0,0,1,.16.06l1.46,1.43V85.87a.08.08,0,0,1,.09-.09h.42A.08.08,0,0,1,83.28,85.87Z"
		transform="translate(-4.2 -0.6)" />
	<path class="cls-1"
		d="M50.09,75.28h-.36V70.53a.29.29,0,0,0-.31-.31h-1a.29.29,0,0,0-.31.31v4.75H45.62V70.53a.29.29,0,0,0-.31-.31h-1a.29.29,0,0,0-.31.31v6a.29.29,0,0,0,.32.31h4.49l.06,1.08a.3.3,0,0,0,.09.22.29.29,0,0,0,.21.09H50a.29.29,0,0,0,.31-.31l.06-2.34A.29.29,0,0,0,50.09,75.28Z"
		transform="translate(-4.2 -0.6)" />
	<path class="cls-1"
		d="M57.72,70.22h-1a.43.43,0,0,0-.36.16l-1.73,2.33-1.14,1.65,0-1.49V70.53a.29.29,0,0,0-.31-.31h-1a.29.29,0,0,0-.31.31v6a.29.29,0,0,0,.31.31h1.07a.41.41,0,0,0,.3-.16L55,74.76l1.45-2.1,0,1.5v2.38a.29.29,0,0,0,.31.31h1a.29.29,0,0,0,.31-.31v-6A.29.29,0,0,0,57.72,70.22Z"
		transform="translate(-4.2 -0.6)" />
	<path class="cls-1"
		d="M66.3,70.22H62.11a.27.27,0,0,0-.28.26l-.69,4.59a.32.32,0,0,1-.09.21.54.54,0,0,1-.46,0,.49.49,0,0,1-.2-.12.33.33,0,0,0-.2-.07.27.27,0,0,0-.22.11l-.49.66a.32.32,0,0,0,0,.4,1.73,1.73,0,0,0,.62.44,2.22,2.22,0,0,0,.87.15,1.67,1.67,0,0,0,1.23-.46,2,2,0,0,0,.54-1.2l.46-3.48H65v4.75a.28.28,0,0,0,.2.3l.08,0h1a.29.29,0,0,0,.31-.31v-6A.29.29,0,0,0,66.3,70.22Z"
		transform="translate(-4.2 -0.6)" />
	<path class="cls-1"
		d="M77.75,70.22h-1a.29.29,0,0,0-.31.31v2.09H73.83V70.53a.29.29,0,0,0-.31-.31h-1a.29.29,0,0,0-.31.31v6a.29.29,0,0,0,.31.31h1a.29.29,0,0,0,.31-.31V74.19h2.58v2.34a.29.29,0,0,0,.31.31h1a.29.29,0,0,0,.31-.31v-6A.29.29,0,0,0,77.75,70.22Z"
		transform="translate(-4.2 -0.6)" />
	<path class="cls-1"
		d="M86.79,75.38a.29.29,0,0,0-.24-.1h-.39V70.54a.28.28,0,0,0-.2-.29l-.08,0H81.53a.32.32,0,0,0-.19.06.37.37,0,0,0-.13.23L80.62,75c0,.25-.15.28-.27.28H80a.29.29,0,0,0-.31.31v2.23a.29.29,0,0,0,.31.31h.93a.29.29,0,0,0,.31-.31l.06-1h4l.05,1a.29.29,0,0,0,.31.31h.94a.29.29,0,0,0,.31-.31V75.58A.36.36,0,0,0,86.79,75.38Zm-2.26-.12H82.25a1.1,1.1,0,0,0,0-.15l.42-3.33h1.82Z"
		transform="translate(-4.2 -0.6)" />
	<path class="cls-1"
		d="M94.07,71.71a2.63,2.63,0,0,0-.55-.77,2.42,2.42,0,0,0-.84-.52,2.85,2.85,0,0,0-1-.18H88.8a.29.29,0,0,0-.31.31v6a.29.29,0,0,0,.31.31h1a.29.29,0,0,0,.31-.31V75.17h1.54a2.84,2.84,0,0,0,1-.18,2.61,2.61,0,0,0,.82-.52,2.35,2.35,0,0,0,.56-.79,2.45,2.45,0,0,0,.2-1A2.31,2.31,0,0,0,94.07,71.71ZM92.4,73.34a1,1,0,0,1-.68.26H90.13V71.79h1.54a1,1,0,0,1,.73.25.86.86,0,0,1,.25.64A.89.89,0,0,1,92.4,73.34Z"
		transform="translate(-4.2 -0.6)" />
	<path class="cls-1"
		d="M104.41,73.82a1.81,1.81,0,0,0-.7-.55,1.22,1.22,0,0,0,.39-.41,1.42,1.42,0,0,0,.19-.74,1.82,1.82,0,0,0-.15-.74,1.7,1.7,0,0,0-.44-.59,2,2,0,0,0-.67-.39,2.42,2.42,0,0,0-.85-.15h-3.1a.29.29,0,0,0-.31.31v6a.29.29,0,0,0,.31.31h3.34a2.85,2.85,0,0,0,.93-.15,2,2,0,0,0,1.21-1.08,2,2,0,0,0,.16-.84A1.63,1.63,0,0,0,104.41,73.82Zm-4-2.05h1.79a.55.55,0,0,1,.38.12.43.43,0,0,1,.13.33.43.43,0,0,1-.14.33.53.53,0,0,1-.37.14h-1.79Zm2.54,3.4a.82.82,0,0,1-.53.15h-2V74.26h2c.63,0,.71.28.71.53A.47.47,0,0,1,102.91,75.16Z"
		transform="translate(-4.2 -0.6)" />
	<path class="cls-1"
		d="M69.91,70.22h-1a.29.29,0,0,0-.31.31v6a.29.29,0,0,0,.31.31h1a.29.29,0,0,0,.31-.31v-6A.29.29,0,0,0,69.91,70.22Z"
		transform="translate(-4.2 -0.6)" />
	<path class="cls-1"
		d="M96.75,70.23h-1a.29.29,0,0,0-.31.31v6a.29.29,0,0,0,.31.31h1a.29.29,0,0,0,.31-.31v-6A.29.29,0,0,0,96.75,70.23Z"
		transform="translate(-4.2 -0.6)" />
</svg>